<svg
   xmlns:dc="http://purl.org/dc/elements/1.1/"
   xmlns:cc="http://creativecommons.org/ns#"
   xmlns:rdf="http://www.w3.org/1999/02/22-rdf-syntax-ns#"
   xmlns:svg="http://www.w3.org/2000/svg"
   xmlns="http://www.w3.org/2000/svg"
   xmlns:sodipodi="http://sodipodi.sourceforge.net/DTD/sodipodi-0.dtd"
   xmlns:inkscape="http://www.inkscape.org/namespaces/inkscape"
   width="1030"
   height="740"
   id="svg2"
   sodipodi:version="0.32"
   inkscape:version="0.46"
   version="1.0"
   sodipodi:docbase="C:\Documents and Settings\Robin\Bureau"
   sodipodi:docname="Paris.svg"
   inkscape:output_extension="org.inkscape.output.svg.inkscape">
  <defs
     id="defs4">
    <inkscape:perspective
       sodipodi:type="inkscape:persp3d"
       inkscape:vp_x="0 : 370 : 1"
       inkscape:vp_y="0 : 1000 : 0"
       inkscape:vp_z="1030 : 370 : 1"
       inkscape:persp3d-origin="515 : 246.66667 : 1"
       id="perspective91" />
  </defs>
  <sodipodi:namedview
     id="base"
     pagecolor="#ffffff"
     bordercolor="#666666"
     borderopacity="1.0"
     gridtolerance="10000"
     guidetolerance="10"
     objecttolerance="10"
     inkscape:pageopacity="0.0"
     inkscape:pageshadow="2"
     inkscape:zoom="0.78108108"
     inkscape:cx="515"
     inkscape:cy="370"
     inkscape:document-units="px"
     inkscape:current-layer="svg2"
     width="1030px"
     height="740px"
     showguides="true"
     inkscape:guide-bbox="true"
     inkscape:window-width="1148"
     inkscape:window-height="774"
     inkscape:window-x="0"
     inkscape:window-y="25"
     showgrid="false" />
  <metadata
     id="metadata7">
    <rdf:RDF>
      <cc:Work
         rdf:about="">
        <dc:format>image/svg+xml</dc:format>
        <dc:type
           rdf:resource="http://purl.org/dc/dcmitype/StillImage" />
      </cc:Work>
    </rdf:RDF>
  </metadata>
  <style
     type="text/css"
     id="style_css_sheet">
/*
 * Below are Cascading Style Sheet (CSS) definitions in use in this file,
 * which allow easily changing how arrondissements are displayed.
 *
 */

/*
 * arrondissements
 */
.arrondissement
{
   fill: #b9b9b9;
   fill-opacity: 1;
   stroke:white;
   stroke-opacity: 1;
   stroke-width:0.2;
   stroke-miterlimit: 3.97446823;
   stroke-dasharray: none;
}

/*
 * Displaying arrondissement numbers
 * To hide numbers, change opacity to 0
 */
.number
{
	opacity: 1;
font-size:40px;font-style:normal;font-variant:normal;font-weight:bold;font-stretch:normal;text-align:start;line-height:125%;writing-mode:lr-tb;text-anchor:start;fill:black;fill-opacity:1;stroke:none;stroke-width:1px;stroke-linecap:butt;stroke-linejoin:miter;stroke-opacity:1;display:inline;font-family:Arial;
}

/*
 * Additional style rules
 *
 * The following are examples of colouring arrondissements.  You can substitute these with your own styles to colour the arrondissements on the map.
 *
 * Color a few arrondissements:
 *
 * .arr14, .arr08, .arr02
 * {
 *    fill:       #ff0000;
 * }
 *
 */


</style>
         <path class="cls-1" d="M 550 266 684 318 649 393 587 351 523 320 550 266z"/>
         <path class="cls-1" d="M 550 266 668 259 702 271 684 318 550 266z"/>
         <path class="cls-2" d="M 702 271 679 330 778 378 755 285 702 271z"/>
         <path class="cls-2" d="M 678.63 329.5 649 393 755 457 782 402 778 378 678.63 329.5z"/>
         <path class="cls-3" d="M 649 393 755 457 765 470 689 534 608 511 649 393z"/>
         <path class="cls-4" d="M 502 452 543 481 608 511 649 393 587 351 568 404 502 452z"/>
         <path class="cls-1" d="M 355 362 418 318 523 320 587 351 568 404 502 452 452 447 355 362z"/>
         <path class="cls-2" d="M 385 232 418 318 523 320 550 266 556 154 421 191 385 232z"/>
         <path class="cls-1" d="M 550 266 556 154 676.5 150.4 668 259 550 266z"/>
         <path class="cls-5" d="M 668 259 676 150 757 148 782 154 824 248 755 285 702 271 668 259z"/>
         <path class="cls-5" d="M 755 285 778 378 782 402 941 440 824 248 755 285z"/>
         <path class="cls-3" d="M 1048,640l10,13,134,161,20-15a86.49,86.49,0,0,0,15-4c4.51-1.65,7.23-3.09,19-9l12-6,14,11a98.21,98.21,0,0,0,8,11s11.63,13.87,23,18a22.09,22.09,0,0,0,4,1,18.41,18.41,0,0,0,4.27.08c.39,0,.68-.07.73-.08,1.48-.2,8.5-.25,25,0a51.65,51.65,0,0,0,14,5,55.47,55.47,0,0,0,9,1s3.48.11,15-1c7.5-.72,6.44-.82,15,0a52.49,52.49,0,0,1,11,2,45.08,45.08,0,0,1,11,5,6.8,6.8,0,0,0-1,3c-.25,3.18,2.54,5.7,5,8,2,1.9,2.21,1.54,5,4a59.89,59.89,0,0,1,5,5c1.41,1.54,3.14,3.54,5,6v8c4.72-5,11.65-5.25,15-2s2.09,8.62,2,9h15l10,3,44,1,16,6,33,1c.33-1.67.67-3.33,1-5l17-11q3.49-11.5,7-23,4-11,8-22,2.51-12,5-24l-7-4c-.33-3.33-.67-6.67-1-10,.33-7.64,2.11-25.18,14-32a19.63,19.63,0,0,1,2-1,37.06,37.06,0,0,0,8-9c2.42-3.85,6.12-9.73,5-17a19.61,19.61,0,0,0-4-9,78.9,78.9,0,0,1-10-15c-1.79-3.52-2.11-4.86-4-8a55.09,55.09,0,0,0-10-12c-7.31-6.65-14.51-9.72-20-12a91.59,91.59,0,0,0-16-5c-24-5.26-57-11.13-62-12-.33-2.67-.67-5.33-1-8l-32-1q-.49,6.5-1,13l-15-2q-2.51,15.5-5,31l-46-3c-1.64-.22-4.06-.55-7-1-3.45-.53-5.18-.8-6-1-2.26-.56-7.25-1.79-11-6a17.6,17.6,0,0,1-4-8l-8-10-11,8v5c-.26.69-.62,1.73-1,3,0,0-.64,2.16-1,4-.52,2.68,2.7,11,9,21q1,10,2,20l3,12a75,75,0,0,1-56,15l5-8q2-9,4-18,2-8.4,4-17,3.81-16.79,7-33c2-10,4-23,4-23l1-10-99-14-159-38Z" transform="translate(-293 -183)"/>
         <path class="cls-5" d="M 689 534 765 470 899 631 880 643 858 654 854 656 847 664 754 709 713 710 693 689 666 710 650 710 650 713 644 710 636.88 519.2 689 534z"/>
         <path class="cls-3" d="M 708,816,836,664l65,30,29,8,7,191-4-2a200.37,200.37,0,0,1-56-6q1-5.5,2-11-21.29-6.18-43-13C791.14,846.89,748.47,831.76,708,816Z" transform="translate(-293 -183)"/>
         <path class="cls-4" d="M 209 562 355 362 452 447 502 452 543 481 415 633 368 618 297 574 276 598 261 611 233 612 233 587 232 582 245 570 234 555 209 562z"/></svg>
         <path class="cls-4" d="M 593,376l86,39,33,86-63,44L502,745l-43-7-17-32-4-36,7-20H434l-44-18-15-19-82-29V561l19-73c4.84-11.68,13.22-27.95,25-35,1.17-.7,5.51-3.19,11-6,8.09-4.14,11.22-5.18,17-8,7.5-3.67,14-6.85,20-12a56.33,56.33,0,0,0,15-21l8-12,51,20q8.5-25.5,17-51Z" transform="translate(-293 -183)"/>
         <path class="cls-2" d="M 299 193 385 232 421 191 556 154 571 9 571 9 519 10 512 17 510 19 509 20 452 49 382 101 362 104 334 125 304 158 299 193z"/>
         <path class="cls-5" d="M 556 154 571 9 788 2 794 57 757 148 556 154z"/>
         <path class="cls-3" d="M 1081,185l6,55-37,91,25,6,42,94,185-56-7-12c-4.11-1.75-11.31-4.82-21-9-6.89-3-10.57-4.59-15-8a49,49,0,0,1-9-9c-7.93-10.5-8.91-22.48-9-28q-.55-5.49-1-11c-1-12-1-17.37-2-29q-.45-5.5-1-11l-16-42-26-23-38-10Z" transform="translate(-293 -183)"/>
         <path class="cls-3" d="M 10481302,375l-185,56,117,192,99,14c-.18-5.12-.48-12.75-1-22-2-35.9-4.5-46.35-8-86-3.12-35.33-4.68-53-4-69,.08-2,.54-12.26,0-26-1-25.45-4.33-34.85-6-39A74.94,74.94,0,0,0,1302,375Z" transform="translate(-293 -183)"/>
</svg>
