<svg
   xmlns:dc="http://purl.org/dc/elements/1.1/"
   xmlns:cc="http://creativecommons.org/ns#"
   xmlns:rdf="http://www.w3.org/1999/02/22-rdf-syntax-ns#"
   xmlns:svg="http://www.w3.org/2000/svg"
   xmlns="http://www.w3.org/2000/svg"
   xmlns:sodipodi="http://sodipodi.sourceforge.net/DTD/sodipodi-0.dtd"
   xmlns:inkscape="http://www.inkscape.org/namespaces/inkscape"
   width="1030"
   height="740"
   id="svg2"
   sodipodi:version="0.32"
   inkscape:version="0.46"
   version="1.0"
   sodipodi:docbase="C:\Documents and Settings\Robin\Bureau"
   sodipodi:docname="Paris.svg"
   inkscape:output_extension="org.inkscape.output.svg.inkscape">
  <defs
     id="defs4">
    <inkscape:perspective
       sodipodi:type="inkscape:persp3d"
       inkscape:vp_x="0 : 370 : 1"
       inkscape:vp_y="0 : 1000 : 0"
       inkscape:vp_z="1030 : 370 : 1"
       inkscape:persp3d-origin="515 : 246.66667 : 1"
       id="perspective91" />
  </defs>
  <sodipodi:namedview
     id="base"
     pagecolor="#ffffff"
     bordercolor="#666666"
     borderopacity="1.0"
     gridtolerance="10000"
     guidetolerance="10"
     objecttolerance="10"
     inkscape:pageopacity="0.0"
     inkscape:pageshadow="2"
     inkscape:zoom="0.78108108"
     inkscape:cx="515"
     inkscape:cy="370"
     inkscape:document-units="px"
     inkscape:current-layer="svg2"
     width="1030px"
     height="740px"
     showguides="true"
     inkscape:guide-bbox="true"
     inkscape:window-width="1148"
     inkscape:window-height="774"
     inkscape:window-x="0"
     inkscape:window-y="25"
     showgrid="false" />
  <metadata
     id="metadata7">
    <rdf:RDF>
      <cc:Work
         rdf:about="">
        <dc:format>image/svg+xml</dc:format>
        <dc:type
           rdf:resource="http://purl.org/dc/dcmitype/StillImage" />
      </cc:Work>
    </rdf:RDF>
  </metadata>
  <style
     type="text/css"
     id="style_css_sheet">
/*
 * Below are Cascading Style Sheet (CSS) definitions in use in this file,
 * which allow easily changing how arrondissements are displayed.
 *
 */

/*
 * arrondissements
 */
.arrondissement
{
   fill: #b9b9b9;
   fill-opacity: 1;
   stroke:white;
   stroke-opacity: 1;
   stroke-width:0.2;
   stroke-miterlimit: 3.97446823;
   stroke-dasharray: none;
}

/*
 * Displaying arrondissement numbers
 * To hide numbers, change opacity to 0
 */
.number
{
	opacity: 1;
font-size:40px;font-style:normal;font-variant:normal;font-weight:bold;font-stretch:normal;text-align:start;line-height:125%;writing-mode:lr-tb;text-anchor:start;fill:black;fill-opacity:1;stroke:none;stroke-width:1px;stroke-linecap:butt;stroke-linejoin:miter;stroke-opacity:1;display:inline;font-family:Arial;
}

/*
 * Additional style rules
 *
 * The following are examples of colouring arrondissements.  You can substitute these with your own styles to colour the arrondissements on the map.
 *
 * Color a few arrondissements:
 *
 * .arr14, .arr08, .arr02
 * {
 *    fill:       #ff0000;
 * }
 *
 */


</style>
<path d="M495.01 239.4 615.61 286.2 584.11 353.7 528.31 315.9 470.71 288 495.01 239.4z" style="fill:#efd3d3"/>
<path d="M495.01 239.4 601.21 233.1 631.81 243.9 615.61 286.2 495.01 239.4z" style="fill:#efd3d3"/>
<path d="M631.81 243.9 611.11 297 700.21 340.2 679.51 256.5 631.81 243.9z" style="fill:#f7b0b0"/>
<path d="M610.78 296.55 584.11 353.7 679.51 411.31 703.81 361.81 700.21 340.2 610.78 296.55z" style="fill:#f7b0b0"/>
<path d="M584.11 353.7 679.51 411.31 688.51 423 620.11 480.61 547.21 459.91 584.11 353.7z" style="fill:#ff3b3b"/>
<path d="M451.81 406.81 488.71 432.9 547.21 459.91 584.11 353.7 528.31 315.9 511.21 363.61 451.81 406.81z" style="fill:#f46060"/>
<path d="M319.5 325.8 376.2 286.2 470.71 288 528.31 315.9 511.21 363.61 451.81 406.81 406.81 402.31 319.5 325.8z" style="fill:#efd3d3"/>
<path d="M346.5 208.8 376.2 286.2 470.71 288 495.01 239.4 500.41 138.6 378.9 171.9 346.5 208.8z" style="fill:#f7b0b0"/>
<path d="M495.01 239.4 500.41 138.6 608.86 135.36 601.21 233.1 495.01 239.4z" style="fill:#efd3d3"/>
<path d="M601.21 233.1 608.41 135 681.31 133.2 703.81 138.6 741.61 223.2 679.51 256.5 631.81 243.9 601.21 233.1z" style="fill:#ff0303"/>
<path d="M679.51 256.5 700.21 340.2 703.81 361.81 846.91 396 741.61 223.2 679.51 256.5z" style="fill:#ff0303"/>
<path d="M1015.51,611.89l9,11.7,120.6,144.9,18-13.5a77.29,77.29,0,0,0,13.5-3.6c4.06-1.49,6.51-2.78,17.1-8.1l10.8-5.4,12.6,9.9a89.17,89.17,0,0,0,7.2,9.9s10.47,12.49,20.7,16.2a19.63,19.63,0,0,0,3.6.9,17,17,0,0,0,3.84.08l.66-.08c1.34-.18,7.65-.22,22.5,0a46.2,46.2,0,0,0,12.6,4.5,50.5,50.5,0,0,0,8.1.9,132.22,132.22,0,0,0,13.5-.9c6.75-.65,5.8-.74,13.5,0a47.08,47.08,0,0,1,9.9,1.8,40.42,40.42,0,0,1,9.9,4.5,6.15,6.15,0,0,0-.9,2.7c-.22,2.86,2.29,5.13,4.5,7.2,1.83,1.71,2,1.39,4.5,3.6a54,54,0,0,1,4.5,4.5c1.27,1.39,2.83,3.19,4.5,5.4v7.2c4.25-4.54,10.49-4.73,13.5-1.8s1.88,7.76,1.8,8.1H1389l9,2.7,39.6.9,14.4,5.4,29.7.9.9-4.5,15.3-9.9,6.3-20.7,7.2-19.8,4.5-21.6-6.3-3.6-.9-9c.3-6.88,1.9-22.66,12.6-28.8a17.77,17.77,0,0,1,1.8-.9,32.92,32.92,0,0,0,7.2-8.1c2.18-3.46,5.51-8.75,4.5-15.3a17.57,17.57,0,0,0-3.6-8.1,71.57,71.57,0,0,1-9-13.5c-1.61-3.17-1.9-4.37-3.6-7.2a49.37,49.37,0,0,0-9-10.8c-6.57-6-13.06-8.75-18-10.8a82.7,82.7,0,0,0-14.4-4.5c-21.55-4.73-51.34-10-55.8-10.8l-.9-7.2-28.8-.9-.9,11.7-13.5-1.8-4.5,27.9-41.4-2.7c-1.47-.19-3.65-.49-6.3-.9-3.11-.48-4.66-.72-5.4-.9-2-.5-6.52-1.61-9.9-5.4a16,16,0,0,1-3.6-7.2l-7.2-9-9.9,7.2v4.5c-.23.62-.56,1.55-.9,2.7,0,0-.58,2-.9,3.6-.47,2.41,2.43,9.92,8.1,18.9l1.8,18,2.7,10.8a67.46,67.46,0,0,1-50.4,13.5l4.5-7.2,3.6-16.2q1.85-7.56,3.6-15.3,3.43-15.11,6.3-29.7c1.8-9,3.6-20.7,3.6-20.7l.9-9-89.1-12.6-143.1-34.2Z" transform="translate(-336 -200.58)" style="fill:#ff3b3b"/>
<path d="M620.11 480.61 688.51 423 809.11 567.91 792.01 578.71 772.21 588.61 768.61 590.41 762.31 597.61 678.61 638.11 641.71 639.01 623.71 620.11 599.41 639.01 585.01 639.01 585.01 641.71 579.61 639.01 573.2 467.29 620.11 480.61z" style="fill:#ff0303"/>
<path d="M709.5,770.29l115.21-136.8,58.5,27,26.1,7.2,6.3,171.9-3.6-1.8a180.33,180.33,0,0,1-50.4-5.4l1.8-9.9q-19.15-5.55-38.7-11.7C784.33,798.1,745.92,784.48,709.5,770.29Z" transform="translate(-336 -200.58)" style="fill:#ff3b3b"/>
<path d="M188.1 505.81 319.5 325.8 406.81 402.31 451.81 406.81 488.71 432.9 373.5 569.71 331.2 556.21 267.3 516.61 248.4 538.21 234.9 549.91 209.7 550.81 209.7 528.31 208.8 523.81 220.5 513.01 210.6 499.51 188.1 505.81z" style="fill:#f46060">
<path d="M269.1 173.7 346.5 208.8 378.9 171.9 500.41 138.6 513.91 8.1 513.91 8.1 467.11 9 460.81 15.3 459.01 17.1 458.11 18 406.81 44.1 343.8 90.9 325.8 93.6 300.6 112.5 273.6 142.2 269.1 173.7z" style="fill:#f7b0b0"/>
<path d="M500.41 138.6 513.91 8.1 709.21 1.8 714.61 51.3 681.31 133.2 500.41 138.6z" style="fill:#ff0303"/>
<path d="M1045.21,202.38l5.4,49.51-33.3,81.9,22.5,5.4,37.8,84.6,166.5-50.4-6.3-10.8c-3.7-1.58-10.17-4.34-18.9-8.1-6.2-2.68-9.51-4.14-13.5-7.2a44.09,44.09,0,0,1-8.1-8.1c-7.13-9.45-8-20.24-8.1-25.2q-.49-5-.9-9.9c-.88-10.82-1-15.64-1.8-26.1q-.4-5-.9-9.9l-14.4-37.8-23.4-20.7-34.2-9Z" transform="translate(-336 -200.58)" style="fill:#ff3b3b"/>
<path d="M1244.11,373.39l-166.5,50.4,105.3,172.8,89.1,12.6c-.16-4.61-.43-11.48-.9-19.8-1.81-32.31-4-41.72-7.2-77.4-2.81-31.8-4.21-47.69-3.6-62.1.08-1.76.49-11,0-23.4-.9-22.91-3.9-31.37-5.4-35.1A67.26,67.26,0,0,0,1244.11,373.39Z" transform="translate(-336 -200.58)" style="fill:#ff3b3b"/>
<path d="M0 361.42 0 340.42 19 273.42 25 258.42 38 244.41 56 234.41 75 225.41 86 216.41 94 205.41 98 198.41 103 191.41 149 208.41 165 162.41 248 171.41 270 174.41 347 209.41 376 286.42 320 326.42 188 505.42 150 499.42 135 472.42 135 470.42 131 438.42 138 419.42 127 420.42 88 403.42 75 386.42 0 361.42z" style="fill:#f46060"/>
</svg>
